<?xml version="1.0" encoding="UTF-8" standalone="no"?>
<!-- Created with Inkscape (http://www.inkscape.org/) -->

<svg
   xmlns:dc="http://purl.org/dc/elements/1.1/"
   xmlns:cc="http://creativecommons.org/ns#"
   xmlns:rdf="http://www.w3.org/1999/02/22-rdf-syntax-ns#"
   xmlns:svg="http://www.w3.org/2000/svg"
   xmlns="http://www.w3.org/2000/svg"
   xmlns:sodipodi="http://sodipodi.sourceforge.net/DTD/sodipodi-0.dtd"
   xmlns:inkscape="http://www.inkscape.org/namespaces/inkscape"
   width="744.09448819"
   height="1052.3622047"
   id="svg3324"
   version="1.1"
   inkscape:version="0.48.5 r10040"
   sodipodi:docname="New document 14">
  <defs
     id="defs3326" />
  <sodipodi:namedview
     id="base"
     pagecolor="#ffffff"
     bordercolor="#666666"
     borderopacity="1.0"
     inkscape:pageopacity="0.0"
     inkscape:pageshadow="2"
     inkscape:zoom="0.35"
     inkscape:cx="375"
     inkscape:cy="520"
     inkscape:document-units="px"
     inkscape:current-layer="layer1"
     showgrid="false"
     inkscape:window-width="444"
     inkscape:window-height="463"
     inkscape:window-x="642"
     inkscape:window-y="26"
     inkscape:window-maximized="0" />
  <metadata
     id="metadata3329">
    <rdf:RDF>
      <cc:Work
         rdf:about="">
        <dc:format>image/svg+xml</dc:format>
        <dc:type
           rdf:resource="http://purl.org/dc/dcmitype/StillImage" />
        <dc:title></dc:title>
      </cc:Work>
    </rdf:RDF>
  </metadata>
  <g
     inkscape:label="Layer 1"
     inkscape:groupmode="layer"
     id="layer1">
    <g
       transform="matrix(1.25,0,0,-1.25,122.85667,963.25004)"
       id="g3295">
      <path
         d="m 406.727,239.446 c 16.696,16.621 11.538,50.242 -17.372,50.242 l -76.068,-0.055 c 2.876,16.119 7.061,42.817 6.891,45.342 -1.59,23.875 -16.833,52.936 -17.475,54.132 -2.769,5.166 -16.792,12.182 -30.9,9.165 -18.252,-3.903 -20.115,-15.528 -20.038,-18.735 0,0 0.8,-31.829 0.877,-40.309 -8.713,-19.156 -38.782,-69.483 -47.912,-73.361 -2.167,1.318 -4.658,2.026 -7.217,2.026 l -96.121,0 c -8.1322,0 -14.7244,-6.591 -14.7244,-14.724 l 0.0117,-132.823 c 0.5687,-7.166 6.6484,-12.782 13.8417,-12.782 l 86.296,0 c 7.652,0 13.88,6.226 13.88,13.878 l 0,4.407 c 0,0 3.21,0.219 4.659,-0.699 5.549,-3.525 12.417,-7.961 21.358,-7.961 l 128.832,0 c 48.137,0 42.972,42.74 38.583,48.587 8.132,8.867 13.166,24.479 6.296,36.832 5.318,5.582 14.612,20.941 6.302,36.838"
         style="fill:#2e3035;fill-opacity:1;fill-rule:nonzero;stroke:none"
         id="path3259"
         inkscape:connector-curvature="0" />
      <path
         d="m 387.175,275.751 -90.827,0 c 3.506,13.917 9.974,58.275 9.974,58.275 -1.466,21.533 -15.868,48.553 -15.868,48.553 -17.118,7.204 -24.811,-2.678 -24.811,-2.678 0,0 0.888,-34.219 0.888,-42.125 0,-7.907 -39.113,-71.123 -48.669,-79.266 -5.064,-4.317 -14.156,-10.251 -21.56,-14.859 l 0,-102.024 5.932,-0.005 c 6.829,0 15.219,-10.552 24.48,-10.552 l 131.024,0.056 c 26.333,0 30.527,29.663 13.149,32.511 l 0.776,3.276 c 16.661,1.792 26.795,28.14 5.526,33.545 l 0.782,3.287 c 15.903,1.673 27.714,27.246 5.52,33.551 l 0.781,3.281 c 20.891,3.296 25.15,35.17 2.903,35.174"
         style="fill:#ffffff;fill-opacity:1;fill-rule:nonzero;stroke:none"
         id="path3261"
         inkscape:connector-curvature="0" />
      <path
         d="m 383.491,237.296 0.781,3.281 c 20.891,3.296 25.15,35.17 2.903,35.174 l -43.876,0 c 22.251,-0.004 17.993,-31.878 -2.9,-35.174 l -0.337,-1.949 c 22.195,-6.304 9.934,-33.21 -5.967,-34.883 l -0.338,-1.955 c 21.274,-5.404 10.691,-33.085 -5.97,-34.877 l -0.329,-1.943 c 17.381,-2.846 12.737,-33.844 -13.596,-33.844 l -87.412,-0.035 0.264,-0.021 131.024,0.056 c 26.333,0 30.527,29.663 13.149,32.511 l 0.776,3.276 c 16.661,1.792 26.795,28.14 5.526,33.545 l 0.782,3.287 c 15.903,1.673 27.714,27.246 5.52,33.551"
         style="fill:#eeeff9;fill-opacity:1;fill-rule:nonzero;stroke:none"
         id="path3263"
         inkscape:connector-curvature="0" />
      <path
         d="m 100.521,121.448 86.4969,0 0,132.562 -86.4969,0 0,-132.562 z"
         style="fill:#667fb5;fill-opacity:1;fill-rule:nonzero;stroke:none"
         id="path3265"
         inkscape:connector-curvature="0" />
      <path
         d="m 181.447,127.01 -75.358,0 0,109.865 75.358,0.125 0,-109.99 z m -80.926,127 0,-132.562 86.497,0 0,132.562 -86.497,0"
         style="fill:#738bb8;fill-opacity:1;fill-rule:nonzero;stroke:none"
         id="path3267"
         inkscape:connector-curvature="0" />
      <path
         d="m 209.368,138.992 c -2.508,1.492 -4.874,2.611 -7.08,2.629 2.206,-0.018 4.574,-1.128 7.08,-2.622 l 0,-0.007 m -7.086,2.629 c -0.005,0 -0.012,0 -0.018,0 0.007,0 0.012,0 0.018,0 m -0.024,0 c -0.008,0.001 -0.016,0.001 -0.024,0.001 l -5.932,0.005 5.932,-0.005 c 0.008,0 0.016,0 0.024,-0.001 m -5.935,102.043 c 1.089,0.68 12.854,8.357 13.045,8.489 l 0,0 c -4.205,-2.9 -8.89,-5.902 -13.045,-8.489"
         style="fill:#2c2e33;fill-opacity:1;fill-rule:nonzero;stroke:none"
         id="path3269"
         inkscape:connector-curvature="0" />
      <path
         d="m 209.368,138.999 c -2.506,1.494 -4.874,2.604 -7.08,2.622 -0.002,0 -0.003,0 -0.006,0 -0.006,0 -0.011,0 -0.018,0 -0.002,0 -0.004,0 -0.006,0 -0.008,0.001 -0.016,0.001 -0.024,0.001 l -5.932,0.005 0,102.024 c 0.007,0.004 0.014,0.008 0.021,0.013 4.155,2.587 8.84,5.589 13.045,8.489 l 0,-113.154"
         style="fill:#e8e8e7;fill-opacity:1;fill-rule:nonzero;stroke:none"
         id="path3271"
         inkscape:connector-curvature="0" />
      <path
         d="m 278.276,385.205 -0.005,0 c 0.062,-0.248 10.69,-39.638 10.69,-45.301 0,-5.667 -32.253,-53.75 -27.936,-59.836 5.882,-8.286 35.323,-4.317 35.323,-4.317 3.506,13.917 9.974,58.275 9.974,58.275 -1.466,21.533 -15.868,48.553 -15.868,48.553 -0.574,0.243 -5.496,2.63 -12.178,2.626"
         style="fill:#eeeff9;fill-opacity:1;fill-rule:nonzero;stroke:none"
         id="path3273"
         inkscape:connector-curvature="0" />
    </g>
  </g>
</svg>
