<?xml version="1.0" standalone="no"?>
<svg xmlns="http://www.w3.org/2000/svg" version="1.1" width="310" height="310">
	<!-- Created with https://api.qrserver.com (QR Code API, see goQR.me/api for information) -->
	<title>QR Code</title>
	<desc>http://goo.gl/Ov6KSi</desc>
	<rect style="fill:rgb(255, 255, 255);fill-opacity:1" x="0" y="0" width="310" height="310" />
	<g id="elements">
		<path style="fill:rgb(0, 0, 0)" d="M 30,30 l 10,0 0,10 -10,0 z M 40,30 l 10,0 0,10 -10,0 z M 50,30 l 10,0 0,10 -10,0 z M 60,30 l 10,0 0,10 -10,0 z M 70,30 l 10,0 0,10 -10,0 z M 80,30 l 10,0 0,10 -10,0 z M 90,30 l 10,0 0,10 -10,0 z M 120,30 l 10,0 0,10 -10,0 z M 160,30 l 10,0 0,10 -10,0 z M 180,30 l 10,0 0,10 -10,0 z M 190,30 l 10,0 0,10 -10,0 z M 210,30 l 10,0 0,10 -10,0 z M 220,30 l 10,0 0,10 -10,0 z M 230,30 l 10,0 0,10 -10,0 z M 240,30 l 10,0 0,10 -10,0 z M 250,30 l 10,0 0,10 -10,0 z M 260,30 l 10,0 0,10 -10,0 z M 270,30 l 10,0 0,10 -10,0 z M 30,40 l 10,0 0,10 -10,0 z M 90,40 l 10,0 0,10 -10,0 z M 110,40 l 10,0 0,10 -10,0 z M 120,40 l 10,0 0,10 -10,0 z M 140,40 l 10,0 0,10 -10,0 z M 150,40 l 10,0 0,10 -10,0 z M 160,40 l 10,0 0,10 -10,0 z M 180,40 l 10,0 0,10 -10,0 z M 210,40 l 10,0 0,10 -10,0 z M 270,40 l 10,0 0,10 -10,0 z M 30,50 l 10,0 0,10 -10,0 z M 50,50 l 10,0 0,10 -10,0 z M 60,50 l 10,0 0,10 -10,0 z M 70,50 l 10,0 0,10 -10,0 z M 90,50 l 10,0 0,10 -10,0 z M 120,50 l 10,0 0,10 -10,0 z M 130,50 l 10,0 0,10 -10,0 z M 140,50 l 10,0 0,10 -10,0 z M 170,50 l 10,0 0,10 -10,0 z M 190,50 l 10,0 0,10 -10,0 z M 210,50 l 10,0 0,10 -10,0 z M 230,50 l 10,0 0,10 -10,0 z M 240,50 l 10,0 0,10 -10,0 z M 250,50 l 10,0 0,10 -10,0 z M 270,50 l 10,0 0,10 -10,0 z M 30,60 l 10,0 0,10 -10,0 z M 50,60 l 10,0 0,10 -10,0 z M 60,60 l 10,0 0,10 -10,0 z M 70,60 l 10,0 0,10 -10,0 z M 90,60 l 10,0 0,10 -10,0 z M 110,60 l 10,0 0,10 -10,0 z M 120,60 l 10,0 0,10 -10,0 z M 140,60 l 10,0 0,10 -10,0 z M 170,60 l 10,0 0,10 -10,0 z M 180,60 l 10,0 0,10 -10,0 z M 190,60 l 10,0 0,10 -10,0 z M 210,60 l 10,0 0,10 -10,0 z M 230,60 l 10,0 0,10 -10,0 z M 240,60 l 10,0 0,10 -10,0 z M 250,60 l 10,0 0,10 -10,0 z M 270,60 l 10,0 0,10 -10,0 z M 30,70 l 10,0 0,10 -10,0 z M 50,70 l 10,0 0,10 -10,0 z M 60,70 l 10,0 0,10 -10,0 z M 70,70 l 10,0 0,10 -10,0 z M 90,70 l 10,0 0,10 -10,0 z M 130,70 l 10,0 0,10 -10,0 z M 150,70 l 10,0 0,10 -10,0 z M 170,70 l 10,0 0,10 -10,0 z M 210,70 l 10,0 0,10 -10,0 z M 230,70 l 10,0 0,10 -10,0 z M 240,70 l 10,0 0,10 -10,0 z M 250,70 l 10,0 0,10 -10,0 z M 270,70 l 10,0 0,10 -10,0 z M 30,80 l 10,0 0,10 -10,0 z M 90,80 l 10,0 0,10 -10,0 z M 110,80 l 10,0 0,10 -10,0 z M 130,80 l 10,0 0,10 -10,0 z M 160,80 l 10,0 0,10 -10,0 z M 180,80 l 10,0 0,10 -10,0 z M 210,80 l 10,0 0,10 -10,0 z M 270,80 l 10,0 0,10 -10,0 z M 30,90 l 10,0 0,10 -10,0 z M 40,90 l 10,0 0,10 -10,0 z M 50,90 l 10,0 0,10 -10,0 z M 60,90 l 10,0 0,10 -10,0 z M 70,90 l 10,0 0,10 -10,0 z M 80,90 l 10,0 0,10 -10,0 z M 90,90 l 10,0 0,10 -10,0 z M 110,90 l 10,0 0,10 -10,0 z M 130,90 l 10,0 0,10 -10,0 z M 150,90 l 10,0 0,10 -10,0 z M 170,90 l 10,0 0,10 -10,0 z M 190,90 l 10,0 0,10 -10,0 z M 210,90 l 10,0 0,10 -10,0 z M 220,90 l 10,0 0,10 -10,0 z M 230,90 l 10,0 0,10 -10,0 z M 240,90 l 10,0 0,10 -10,0 z M 250,90 l 10,0 0,10 -10,0 z M 260,90 l 10,0 0,10 -10,0 z M 270,90 l 10,0 0,10 -10,0 z M 150,100 l 10,0 0,10 -10,0 z M 170,100 l 10,0 0,10 -10,0 z M 190,100 l 10,0 0,10 -10,0 z M 30,110 l 10,0 0,10 -10,0 z M 40,110 l 10,0 0,10 -10,0 z M 50,110 l 10,0 0,10 -10,0 z M 60,110 l 10,0 0,10 -10,0 z M 70,110 l 10,0 0,10 -10,0 z M 90,110 l 10,0 0,10 -10,0 z M 100,110 l 10,0 0,10 -10,0 z M 110,110 l 10,0 0,10 -10,0 z M 120,110 l 10,0 0,10 -10,0 z M 130,110 l 10,0 0,10 -10,0 z M 150,110 l 10,0 0,10 -10,0 z M 160,110 l 10,0 0,10 -10,0 z M 170,110 l 10,0 0,10 -10,0 z M 180,110 l 10,0 0,10 -10,0 z M 190,110 l 10,0 0,10 -10,0 z M 200,110 l 10,0 0,10 -10,0 z M 220,110 l 10,0 0,10 -10,0 z M 240,110 l 10,0 0,10 -10,0 z M 260,110 l 10,0 0,10 -10,0 z M 30,120 l 10,0 0,10 -10,0 z M 120,120 l 10,0 0,10 -10,0 z M 160,120 l 10,0 0,10 -10,0 z M 190,120 l 10,0 0,10 -10,0 z M 220,120 l 10,0 0,10 -10,0 z M 260,120 l 10,0 0,10 -10,0 z M 30,130 l 10,0 0,10 -10,0 z M 50,130 l 10,0 0,10 -10,0 z M 60,130 l 10,0 0,10 -10,0 z M 80,130 l 10,0 0,10 -10,0 z M 90,130 l 10,0 0,10 -10,0 z M 100,130 l 10,0 0,10 -10,0 z M 110,130 l 10,0 0,10 -10,0 z M 120,130 l 10,0 0,10 -10,0 z M 140,130 l 10,0 0,10 -10,0 z M 150,130 l 10,0 0,10 -10,0 z M 180,130 l 10,0 0,10 -10,0 z M 190,130 l 10,0 0,10 -10,0 z M 200,130 l 10,0 0,10 -10,0 z M 220,130 l 10,0 0,10 -10,0 z M 230,130 l 10,0 0,10 -10,0 z M 240,130 l 10,0 0,10 -10,0 z M 260,130 l 10,0 0,10 -10,0 z M 270,130 l 10,0 0,10 -10,0 z M 40,140 l 10,0 0,10 -10,0 z M 100,140 l 10,0 0,10 -10,0 z M 110,140 l 10,0 0,10 -10,0 z M 120,140 l 10,0 0,10 -10,0 z M 130,140 l 10,0 0,10 -10,0 z M 140,140 l 10,0 0,10 -10,0 z M 170,140 l 10,0 0,10 -10,0 z M 190,140 l 10,0 0,10 -10,0 z M 200,140 l 10,0 0,10 -10,0 z M 220,140 l 10,0 0,10 -10,0 z M 230,140 l 10,0 0,10 -10,0 z M 270,140 l 10,0 0,10 -10,0 z M 30,150 l 10,0 0,10 -10,0 z M 70,150 l 10,0 0,10 -10,0 z M 80,150 l 10,0 0,10 -10,0 z M 90,150 l 10,0 0,10 -10,0 z M 110,150 l 10,0 0,10 -10,0 z M 120,150 l 10,0 0,10 -10,0 z M 140,150 l 10,0 0,10 -10,0 z M 210,150 l 10,0 0,10 -10,0 z M 230,150 l 10,0 0,10 -10,0 z M 250,150 l 10,0 0,10 -10,0 z M 260,150 l 10,0 0,10 -10,0 z M 270,150 l 10,0 0,10 -10,0 z M 30,160 l 10,0 0,10 -10,0 z M 40,160 l 10,0 0,10 -10,0 z M 50,160 l 10,0 0,10 -10,0 z M 60,160 l 10,0 0,10 -10,0 z M 80,160 l 10,0 0,10 -10,0 z M 120,160 l 10,0 0,10 -10,0 z M 130,160 l 10,0 0,10 -10,0 z M 150,160 l 10,0 0,10 -10,0 z M 160,160 l 10,0 0,10 -10,0 z M 180,160 l 10,0 0,10 -10,0 z M 190,160 l 10,0 0,10 -10,0 z M 220,160 l 10,0 0,10 -10,0 z M 240,160 l 10,0 0,10 -10,0 z M 260,160 l 10,0 0,10 -10,0 z M 30,170 l 10,0 0,10 -10,0 z M 50,170 l 10,0 0,10 -10,0 z M 60,170 l 10,0 0,10 -10,0 z M 70,170 l 10,0 0,10 -10,0 z M 90,170 l 10,0 0,10 -10,0 z M 120,170 l 10,0 0,10 -10,0 z M 160,170 l 10,0 0,10 -10,0 z M 170,170 l 10,0 0,10 -10,0 z M 180,170 l 10,0 0,10 -10,0 z M 190,170 l 10,0 0,10 -10,0 z M 200,170 l 10,0 0,10 -10,0 z M 220,170 l 10,0 0,10 -10,0 z M 230,170 l 10,0 0,10 -10,0 z M 240,170 l 10,0 0,10 -10,0 z M 260,170 l 10,0 0,10 -10,0 z M 270,170 l 10,0 0,10 -10,0 z M 30,180 l 10,0 0,10 -10,0 z M 60,180 l 10,0 0,10 -10,0 z M 80,180 l 10,0 0,10 -10,0 z M 100,180 l 10,0 0,10 -10,0 z M 110,180 l 10,0 0,10 -10,0 z M 130,180 l 10,0 0,10 -10,0 z M 150,180 l 10,0 0,10 -10,0 z M 160,180 l 10,0 0,10 -10,0 z M 190,180 l 10,0 0,10 -10,0 z M 220,180 l 10,0 0,10 -10,0 z M 240,180 l 10,0 0,10 -10,0 z M 270,180 l 10,0 0,10 -10,0 z M 30,190 l 10,0 0,10 -10,0 z M 70,190 l 10,0 0,10 -10,0 z M 80,190 l 10,0 0,10 -10,0 z M 90,190 l 10,0 0,10 -10,0 z M 150,190 l 10,0 0,10 -10,0 z M 170,190 l 10,0 0,10 -10,0 z M 190,190 l 10,0 0,10 -10,0 z M 200,190 l 10,0 0,10 -10,0 z M 210,190 l 10,0 0,10 -10,0 z M 220,190 l 10,0 0,10 -10,0 z M 230,190 l 10,0 0,10 -10,0 z M 250,190 l 10,0 0,10 -10,0 z M 110,200 l 10,0 0,10 -10,0 z M 180,200 l 10,0 0,10 -10,0 z M 190,200 l 10,0 0,10 -10,0 z M 230,200 l 10,0 0,10 -10,0 z M 240,200 l 10,0 0,10 -10,0 z M 250,200 l 10,0 0,10 -10,0 z M 30,210 l 10,0 0,10 -10,0 z M 40,210 l 10,0 0,10 -10,0 z M 50,210 l 10,0 0,10 -10,0 z M 60,210 l 10,0 0,10 -10,0 z M 70,210 l 10,0 0,10 -10,0 z M 80,210 l 10,0 0,10 -10,0 z M 90,210 l 10,0 0,10 -10,0 z M 110,210 l 10,0 0,10 -10,0 z M 130,210 l 10,0 0,10 -10,0 z M 140,210 l 10,0 0,10 -10,0 z M 150,210 l 10,0 0,10 -10,0 z M 190,210 l 10,0 0,10 -10,0 z M 210,210 l 10,0 0,10 -10,0 z M 230,210 l 10,0 0,10 -10,0 z M 240,210 l 10,0 0,10 -10,0 z M 250,210 l 10,0 0,10 -10,0 z M 260,210 l 10,0 0,10 -10,0 z M 270,210 l 10,0 0,10 -10,0 z M 30,220 l 10,0 0,10 -10,0 z M 90,220 l 10,0 0,10 -10,0 z M 140,220 l 10,0 0,10 -10,0 z M 170,220 l 10,0 0,10 -10,0 z M 180,220 l 10,0 0,10 -10,0 z M 190,220 l 10,0 0,10 -10,0 z M 230,220 l 10,0 0,10 -10,0 z M 240,220 l 10,0 0,10 -10,0 z M 270,220 l 10,0 0,10 -10,0 z M 30,230 l 10,0 0,10 -10,0 z M 50,230 l 10,0 0,10 -10,0 z M 60,230 l 10,0 0,10 -10,0 z M 70,230 l 10,0 0,10 -10,0 z M 90,230 l 10,0 0,10 -10,0 z M 110,230 l 10,0 0,10 -10,0 z M 120,230 l 10,0 0,10 -10,0 z M 140,230 l 10,0 0,10 -10,0 z M 180,230 l 10,0 0,10 -10,0 z M 190,230 l 10,0 0,10 -10,0 z M 200,230 l 10,0 0,10 -10,0 z M 210,230 l 10,0 0,10 -10,0 z M 220,230 l 10,0 0,10 -10,0 z M 230,230 l 10,0 0,10 -10,0 z M 240,230 l 10,0 0,10 -10,0 z M 250,230 l 10,0 0,10 -10,0 z M 260,230 l 10,0 0,10 -10,0 z M 270,230 l 10,0 0,10 -10,0 z M 30,240 l 10,0 0,10 -10,0 z M 50,240 l 10,0 0,10 -10,0 z M 60,240 l 10,0 0,10 -10,0 z M 70,240 l 10,0 0,10 -10,0 z M 90,240 l 10,0 0,10 -10,0 z M 110,240 l 10,0 0,10 -10,0 z M 130,240 l 10,0 0,10 -10,0 z M 150,240 l 10,0 0,10 -10,0 z M 160,240 l 10,0 0,10 -10,0 z M 170,240 l 10,0 0,10 -10,0 z M 180,240 l 10,0 0,10 -10,0 z M 200,240 l 10,0 0,10 -10,0 z M 210,240 l 10,0 0,10 -10,0 z M 230,240 l 10,0 0,10 -10,0 z M 250,240 l 10,0 0,10 -10,0 z M 260,240 l 10,0 0,10 -10,0 z M 270,240 l 10,0 0,10 -10,0 z M 30,250 l 10,0 0,10 -10,0 z M 50,250 l 10,0 0,10 -10,0 z M 60,250 l 10,0 0,10 -10,0 z M 70,250 l 10,0 0,10 -10,0 z M 90,250 l 10,0 0,10 -10,0 z M 110,250 l 10,0 0,10 -10,0 z M 120,250 l 10,0 0,10 -10,0 z M 130,250 l 10,0 0,10 -10,0 z M 160,250 l 10,0 0,10 -10,0 z M 170,250 l 10,0 0,10 -10,0 z M 190,250 l 10,0 0,10 -10,0 z M 220,250 l 10,0 0,10 -10,0 z M 250,250 l 10,0 0,10 -10,0 z M 270,250 l 10,0 0,10 -10,0 z M 30,260 l 10,0 0,10 -10,0 z M 90,260 l 10,0 0,10 -10,0 z M 110,260 l 10,0 0,10 -10,0 z M 120,260 l 10,0 0,10 -10,0 z M 130,260 l 10,0 0,10 -10,0 z M 150,260 l 10,0 0,10 -10,0 z M 160,260 l 10,0 0,10 -10,0 z M 180,260 l 10,0 0,10 -10,0 z M 190,260 l 10,0 0,10 -10,0 z M 200,260 l 10,0 0,10 -10,0 z M 210,260 l 10,0 0,10 -10,0 z M 220,260 l 10,0 0,10 -10,0 z M 230,260 l 10,0 0,10 -10,0 z M 240,260 l 10,0 0,10 -10,0 z M 270,260 l 10,0 0,10 -10,0 z M 30,270 l 10,0 0,10 -10,0 z M 40,270 l 10,0 0,10 -10,0 z M 50,270 l 10,0 0,10 -10,0 z M 60,270 l 10,0 0,10 -10,0 z M 70,270 l 10,0 0,10 -10,0 z M 80,270 l 10,0 0,10 -10,0 z M 90,270 l 10,0 0,10 -10,0 z M 110,270 l 10,0 0,10 -10,0 z M 130,270 l 10,0 0,10 -10,0 z M 150,270 l 10,0 0,10 -10,0 z M 170,270 l 10,0 0,10 -10,0 z M 200,270 l 10,0 0,10 -10,0 z M 220,270 l 10,0 0,10 -10,0 z M 230,270 l 10,0 0,10 -10,0 z M 240,270 l 10,0 0,10 -10,0 z M 250,270 l 10,0 0,10 -10,0 z M 260,270 l 10,0 0,10 -10,0 z M 270,270 l 10,0 0,10 -10,0 z " />
	</g>
</svg>
